<svg width="16" height="16" viewBox="0 0 16 16" fill="none" xmlns="http://www.w3.org/2000/svg">
<path d="M10.3365 1.34649H5.66389C5.44528 1.34586 5.22869 1.38845 5.02659 1.47182C4.82449 1.55519 4.64087 1.67769 4.48628 1.83228C4.3317 1.98687 4.2092 2.17049 4.12583 2.37259C4.04246 2.57469 3.99986 2.79127 4.0005 3.00989V12.9903C4.0005 13.9127 4.75659 14.6537 5.66389 14.6537H10.3365C10.5551 14.6543 10.7717 14.6117 10.9738 14.5283C11.1759 14.445 11.3596 14.3225 11.5141 14.1679C11.6687 14.0133 11.7912 13.8297 11.8746 13.6276C11.958 13.4255 12.0006 13.2089 11.9999 12.9903V3.00989C12.0006 2.79127 11.958 2.57469 11.8746 2.37259C11.7912 2.17049 11.6687 1.98687 11.5141 1.83228C11.3596 1.67769 11.1759 1.55519 10.9738 1.47182C10.7717 1.38845 10.5551 1.34586 10.3365 1.34649ZM8.00777 13.58C7.58436 13.58 7.25168 13.2474 7.25168 12.8239C7.25168 12.4005 7.58436 12.0679 8.00777 12.0679C8.43118 12.0679 8.76386 12.4005 8.76386 12.8239C8.76386 13.2474 8.43118 13.58 8.00777 13.58ZM11.2438 11.2664H4.75659V3.5694H11.2438V11.2664Z" fill="#343A3F" fill-opacity="0.5"/>
</svg>
