<svg width="80" height="80" viewBox="0 0 80 80" fill="none" xmlns="http://www.w3.org/2000/svg">
<circle cx="40" cy="40" r="40" fill="#4888FF"/>
<circle cx="40" cy="40" r="35" fill="#4888FF"/>
<path d="M40.4998 59.2917C42.9685 59.2984 45.4141 58.8154 47.6949 57.8706C49.9757 56.9258 52.0464 55.5379 53.7872 53.7874C54.1075 53.4671 54.2874 53.0326 54.2874 52.5796C54.2874 52.1266 54.1075 51.6922 53.7872 51.3718L42.9154 40.5L53.7872 29.6282C54.1075 29.3078 54.2874 28.8734 54.2874 28.4204C54.2874 27.9674 54.1075 27.5329 53.7872 27.2126C51.602 25.0273 48.9117 23.4147 45.9544 22.5176C42.9971 21.6204 39.8643 21.4665 36.8333 22.0694C33.8023 22.6722 30.9668 24.0133 28.5779 25.9738C26.189 27.9343 24.3205 30.4537 23.1379 33.3088C21.9553 36.1639 21.4951 39.2666 21.798 42.3421C22.101 45.4176 23.1577 48.3709 24.8747 50.9404C26.5916 53.5099 28.9158 55.6163 31.6413 57.073C34.3668 58.5297 37.4094 59.2918 40.4998 59.2917ZM40.4998 25.125C43.989 25.115 47.3763 26.3009 50.0972 28.4853L39.292 39.2922C38.9717 39.6126 38.7918 40.047 38.7918 40.5C38.7918 40.953 38.9717 41.3874 39.292 41.7078L50.0972 52.5147C48.1782 54.047 45.92 55.0974 43.5118 55.5778C41.1035 56.0583 38.6152 55.9549 36.255 55.2763C33.8949 54.5977 31.7317 53.3637 29.9464 51.6775C28.1611 49.9912 26.8057 47.9019 25.9936 45.5843C25.1815 43.2668 24.9364 40.7884 25.2787 38.3566C25.6211 35.9249 26.5409 33.6105 27.9613 31.6072C29.3817 29.6039 31.2613 27.97 33.4427 26.8422C35.6242 25.7144 38.0441 25.1256 40.4998 25.125ZM59.2915 40.5C59.2915 41.1757 59.0911 41.8363 58.7156 42.3982C58.3402 42.9601 57.8066 43.398 57.1823 43.6566C56.558 43.9152 55.871 43.9828 55.2082 43.851C54.5455 43.7192 53.9367 43.3938 53.4588 42.9159C52.981 42.4381 52.6556 41.8293 52.5238 41.1666C52.3919 40.5038 52.4596 39.8168 52.7182 39.1925C52.9768 38.5682 53.4147 38.0346 53.9766 37.6591C54.5385 37.2837 55.199 37.0833 55.8748 37.0833C56.7809 37.0833 57.65 37.4433 58.2907 38.084C58.9315 38.7248 59.2915 39.5938 59.2915 40.5ZM33.6665 31.9583C33.6665 31.2826 33.8668 30.622 34.2423 30.0601C34.6177 29.4983 35.1513 29.0603 35.7756 28.8017C36.3999 28.5431 37.0869 28.4755 37.7497 28.6073C38.4124 28.7391 39.0212 29.0646 39.4991 29.5424C39.9769 30.0202 40.3023 30.629 40.4341 31.2918C40.566 31.9545 40.4983 32.6415 40.2397 33.2658C39.9811 33.8901 39.5432 34.4238 38.9813 34.7992C38.4195 35.1746 37.7589 35.375 37.0831 35.375C36.177 35.375 35.3079 35.015 34.6672 34.3743C34.0264 33.7335 33.6665 32.8645 33.6665 31.9583Z" fill="white"/>
</svg>
